<svg class="w-8 h-8 text-white" viewBox="0 0 24 24" fill="none" xmlns="http://www.w3.org/2000/svg"><path d="M3 7C3 4.79086 4.79086 3 7 3H17C19.2091 3 21 4.79086 21 7V17C21 19.2091 19.2091 21 17 21H7C4.79086 21 3 19.2091 3 17V7Z" stroke="currentColor" stroke-width="2" class=""></path><path d="M8 12C8 10.3431 9.34315 9 11 9H13C14.6569 9 16 10.3431 16 12V17C16 17.5523 15.5523 18 15 18H9C8.44772 18 8 17.5523 8 17V12Z" fill="currentColor" class=""></path><path d="M12 7L12 9" stroke="currentColor" stroke-width="2" stroke-linecap="round"></path><path d="M8 16L16 16" stroke="white" stroke-width="1" stroke-linecap="round" class=""></path></svg>